<?xml version="1.0" encoding="UTF-8"?>
<svg xmlns="http://www.w3.org/2000/svg" xmlns:xlink="http://www.w3.org/1999/xlink" width="29px" height="32px" viewBox="0 0 29 32" version="1.1">
<g id="surface1">
<path style=" stroke:none;fill-rule:evenodd;fill:rgb(0%,0%,0%);fill-opacity:1;" d="M 0.492188 3.839844 L 6.464844 3.839844 L 6.457031 3.738281 L 6.457031 1.089844 C 6.457031 0.5 7.082031 0.015625 7.84375 0.015625 C 8.605469 0.015625 9.230469 0.503906 9.230469 1.089844 L 9.230469 3.738281 L 9.222656 3.839844 L 19.398438 3.839844 L 19.390625 3.738281 L 19.390625 1.089844 C 19.390625 0.5 20.011719 0.015625 20.773438 0.015625 C 21.535156 0.015625 22.160156 0.503906 22.160156 1.089844 L 22.160156 3.738281 L 22.152344 3.839844 L 28.507812 3.839844 C 28.777344 3.839844 29 4.058594 29 4.324219 L 29 9.386719 C 29 9.65625 28.777344 9.875 28.507812 9.875 L 0.492188 9.875 C 0.222656 9.871094 0 9.652344 0 9.382812 L 0 4.324219 C 0 4.054688 0.222656 3.839844 0.492188 3.839844 Z M 0.125 10.992188 L 28.878906 10.992188 C 28.949219 10.992188 29 11.046875 29 11.113281 L 29 31.859375 C 29 31.925781 28.945312 31.980469 28.878906 31.980469 L 0.125 31.980469 C 0.0585938 31.980469 0 31.925781 0 31.859375 L 0 11.113281 C 0 11.046875 0.0546875 10.992188 0.125 10.992188 Z M 25.640625 13.742188 L 22.03125 13.742188 C 21.8125 13.742188 21.632812 13.90625 21.632812 14.105469 L 21.632812 17.421875 C 21.632812 17.621094 21.8125 17.785156 22.03125 17.785156 L 25.644531 17.785156 C 25.863281 17.785156 26.042969 17.621094 26.042969 17.421875 L 26.042969 14.105469 C 26.039062 13.90625 25.859375 13.742188 25.640625 13.742188 Z M 3.226562 19.507812 L 6.839844 19.507812 C 7.058594 19.507812 7.234375 19.671875 7.234375 19.875 L 7.234375 23.1875 C 7.234375 23.386719 7.058594 23.550781 6.839844 23.550781 L 3.351562 23.550781 C 3.132812 23.550781 2.957031 23.386719 2.957031 23.1875 L 2.957031 19.753906 C 2.957031 19.554688 3.132812 19.390625 3.351562 19.390625 Z M 3.226562 25.277344 L 6.839844 25.277344 C 7.058594 25.277344 7.234375 25.441406 7.234375 25.644531 L 7.234375 28.957031 C 7.234375 29.15625 7.058594 29.320312 6.839844 29.320312 L 3.347656 29.320312 C 3.128906 29.320312 2.953125 29.15625 2.953125 28.957031 L 2.953125 25.644531 C 2.953125 25.441406 3.132812 25.277344 3.347656 25.277344 Z M 3.226562 13.742188 L 6.839844 13.742188 C 7.058594 13.742188 7.234375 13.90625 7.234375 14.105469 L 7.234375 17.421875 C 7.234375 17.621094 7.058594 17.785156 6.839844 17.785156 L 3.347656 17.785156 C 3.128906 17.785156 2.953125 17.621094 2.953125 17.421875 L 2.953125 14.105469 C 2.953125 13.90625 3.132812 13.742188 3.347656 13.742188 Z M 9.496094 13.742188 L 13.109375 13.742188 C 13.328125 13.742188 13.503906 13.90625 13.503906 14.105469 L 13.503906 17.421875 C 13.503906 17.621094 13.324219 17.785156 13.109375 17.785156 L 9.496094 17.785156 C 9.277344 17.785156 9.097656 17.621094 9.097656 17.421875 L 9.097656 14.105469 C 9.097656 13.90625 9.277344 13.742188 9.496094 13.742188 Z M 9.496094 19.507812 L 13.109375 19.507812 C 13.328125 19.507812 13.503906 19.671875 13.503906 19.875 L 13.503906 23.1875 C 13.503906 23.386719 13.324219 23.550781 13.109375 23.550781 L 9.496094 23.550781 C 9.277344 23.550781 9.097656 23.386719 9.097656 23.1875 L 9.097656 19.753906 C 9.097656 19.554688 9.277344 19.390625 9.496094 19.390625 Z M 9.496094 25.277344 L 13.109375 25.277344 C 13.328125 25.277344 13.503906 25.441406 13.503906 25.644531 L 13.503906 28.957031 C 13.503906 29.15625 13.324219 29.320312 13.109375 29.320312 L 9.496094 29.320312 C 9.277344 29.320312 9.097656 29.15625 9.097656 28.957031 L 9.097656 25.644531 C 9.097656 25.441406 9.277344 25.277344 9.496094 25.277344 Z M 15.761719 13.742188 L 19.375 13.742188 C 19.59375 13.742188 19.773438 13.90625 19.773438 14.105469 L 19.773438 17.421875 C 19.773438 17.621094 19.59375 17.785156 19.375 17.785156 L 15.761719 17.785156 C 15.542969 17.785156 15.363281 17.621094 15.363281 17.421875 L 15.363281 14.105469 C 15.367188 13.90625 15.542969 13.742188 15.761719 13.742188 Z M 15.761719 19.507812 L 19.375 19.507812 C 19.59375 19.507812 19.773438 19.671875 19.773438 19.875 L 19.773438 23.1875 C 19.773438 23.386719 19.59375 23.550781 19.375 23.550781 L 15.761719 23.550781 C 15.542969 23.550781 15.363281 23.386719 15.363281 23.1875 L 15.363281 19.753906 C 15.363281 19.554688 15.542969 19.390625 15.761719 19.390625 Z M 25.640625 19.507812 L 22.03125 19.507812 C 21.8125 19.507812 21.632812 19.671875 21.632812 19.875 L 21.632812 23.1875 C 21.632812 23.386719 21.8125 23.550781 22.03125 23.550781 L 25.644531 23.550781 C 25.863281 23.550781 26.042969 23.386719 26.042969 23.1875 L 26.042969 19.75 C 26.042969 19.550781 25.863281 19.386719 25.644531 19.386719 Z M 25.640625 25.277344 L 22.03125 25.277344 C 21.8125 25.277344 21.632812 25.441406 21.632812 25.644531 L 21.632812 28.957031 C 21.632812 29.15625 21.8125 29.320312 22.03125 29.320312 L 25.644531 29.320312 C 25.863281 29.320312 26.042969 29.15625 26.042969 28.957031 L 26.042969 25.519531 C 26.042969 25.320312 25.863281 25.15625 25.644531 25.15625 Z M 15.761719 25.277344 L 19.375 25.277344 C 19.59375 25.277344 19.773438 25.441406 19.773438 25.644531 L 19.773438 28.957031 C 19.773438 29.15625 19.59375 29.320312 19.375 29.320312 L 15.761719 29.320312 C 15.542969 29.320312 15.363281 29.15625 15.363281 28.957031 L 15.363281 25.644531 C 15.367188 25.441406 15.542969 25.277344 15.761719 25.277344 Z M 1.847656 12.429688 L 27.398438 12.429688 C 27.535156 12.429688 27.644531 12.542969 27.644531 12.671875 L 27.644531 30.300781 C 27.644531 30.433594 27.527344 30.546875 27.398438 30.546875 L 1.601562 30.546875 C 1.472656 30.546875 1.355469 30.4375 1.355469 30.300781 L 1.355469 12.914062 C 1.355469 12.648438 1.578125 12.429688 1.847656 12.429688 Z M 20.773438 7.664062 C 21.535156 7.664062 22.160156 7.179688 22.160156 6.589844 L 22.160156 3.949219 L 22.152344 3.839844 L 19.398438 3.839844 L 19.390625 3.949219 L 19.390625 6.589844 C 19.390625 7.179688 20.011719 7.664062 20.773438 7.664062 Z M 7.84375 7.664062 C 8.605469 7.664062 9.230469 7.179688 9.230469 6.589844 L 9.230469 3.949219 L 9.222656 3.839844 L 6.464844 3.839844 L 6.457031 3.949219 L 6.457031 6.589844 C 6.457031 7.179688 7.082031 7.664062 7.84375 7.664062 Z M 7.84375 7.664062 "/>
</g>
</svg>
